<svg width="70" height="70" viewBox="0 0 70 70" fill="none" xmlns="http://www.w3.org/2000/svg">
<g clip-path="url(#clip0_1_16)">
<path d="M0 10.769V13.4614H21.5385V16.1537H5.38462V18.846H0V21.5383H18.8462V24.2306H5.38462V26.9229H0V29.6152H16.1538V32.3075H5.38462V34.9998H0V37.6921H13.4615V40.3844H5.38462V51.1537C5.38462 52.769 6.46154 53.846 8.07692 53.846H10.7692C11.3077 49.269 15.3462 45.516 20.1923 45.516C25.0385 45.516 29.0769 48.9998 29.6154 53.846H37.6923C39.3077 53.846 40.3846 52.769 40.3846 51.1537V13.4614C40.3846 11.846 39.3077 10.769 37.6923 10.769H0ZM45.7692 21.5383C44.1538 21.5383 43.0769 22.6152 43.0769 24.2306V51.1537C43.0769 52.4998 44.1538 53.846 45.7692 53.846C46.3077 49.269 50.3462 45.516 55.1923 45.516C60.0385 45.516 64.0769 48.9998 64.6154 53.846H67.3077C68.9231 53.846 70 52.769 70 51.1537V37.6921C70 35.269 67.8112 32.3075 67.8112 32.3075L61.9231 24.2306C60.5769 22.6152 59.7692 21.5383 57.8846 21.5383H45.7692ZM51.1538 26.9229H57.6315C58.17 26.9229 58.7273 27.429 58.7273 27.429L64.3623 35.2529C64.9008 36.0606 65.4581 36.9006 65.4581 37.439H51.1538V26.9229ZM20.1923 48.9675C18.5429 48.9732 16.9627 49.6307 15.7962 50.7968C14.6296 51.9628 13.9714 53.5428 13.965 55.1921C13.9707 56.842 14.6286 58.4226 15.7952 59.5892C16.9618 60.7558 18.5425 61.4137 20.1923 61.4194C21.8421 61.4137 23.4228 60.7558 24.5894 59.5892C25.756 58.4226 26.4139 56.842 26.4196 55.1921C26.4139 53.5423 25.756 51.9616 24.5894 50.795C23.4228 49.6284 21.8421 48.9705 20.1923 48.9648V48.9675ZM55.1923 48.9675C53.5429 48.9732 51.9627 49.6307 50.7962 50.7968C49.6296 51.9628 48.9714 53.5428 48.965 55.1921C48.9707 56.842 49.6286 58.4226 50.7952 59.5892C51.9618 60.7558 53.5425 61.4137 55.1923 61.4194C56.8421 61.4137 58.4228 60.7558 59.5894 59.5892C60.756 58.4226 61.4139 56.842 61.4196 55.1921C61.4139 53.5423 60.756 51.9616 59.5894 50.795C58.4228 49.6284 56.8421 48.9705 55.1923 48.9648V48.9675Z" fill="black"/>
</g>
<defs>
<clipPath id="clip0_1_16">
<rect width="70" height="70" fill="white"/>
</clipPath>
</defs>
</svg>
